<svg xmlns="http://www.w3.org/2000/svg" width="142" height="29" viewBox="0 0 142 29" fill="none">
<path d="M137.106 21.7754C136.34 23.6733 134.034 24.4012 132.268 23.4266C131.12 22.793 130.51 21.6115 130.59 20.4272C130.627 19.8914 130.336 19.384 129.85 19.1158L126.005 16.9941C125.519 16.7266 124.916 16.7384 124.449 17.0343C123.418 17.6878 122.046 17.7715 120.902 17.1398C119.138 16.1664 118.643 13.8984 119.974 12.3162C120.792 11.3441 122.166 10.9199 123.429 11.2353C123.811 11.3308 124.15 11.4794 124.446 11.6679C124.923 11.9704 125.533 11.999 126.029 11.7255L129.851 9.61672C130.351 9.34071 130.622 8.81516 130.59 8.26469C130.556 7.66318 130.696 7.04563 131.035 6.48491C132.028 4.84101 134.309 4.35083 135.957 5.50629C137.217 6.39038 137.67 8.03757 137.031 9.4012C136.694 10.1216 136.126 10.655 135.457 10.9724C134.948 11.214 134.624 11.706 134.624 12.2487V16.4819C134.624 17.0273 134.953 17.5169 135.463 17.7612C135.779 17.912 136.079 18.1161 136.354 18.3807C137.271 19.2658 137.574 20.6133 137.106 21.7754ZM138.495 14.3638C139.452 13.7316 140.27 12.9012 140.868 11.9106C143.07 8.26623 141.759 3.58948 137.945 1.48498C136.732 0.815628 135.353 0.461914 133.955 0.461914C131.11 0.461914 128.459 1.92432 127.036 4.27854C126.429 5.28363 126.091 6.36739 125.997 7.45385C124.932 6.97353 123.768 6.71897 122.589 6.71897C119.744 6.71897 117.092 8.18138 115.67 10.5356C114.603 12.3013 114.32 14.358 114.872 16.327C115.424 18.2964 116.746 19.9421 118.593 20.9611C119.806 21.6302 121.185 21.9841 122.582 21.9843H122.583C123.781 21.9843 124.944 21.7222 125.996 21.246C126.202 23.662 127.602 25.9471 129.96 27.2483C131.173 27.9172 132.552 28.2712 133.949 28.2712C136.794 28.2712 139.446 26.8086 140.868 24.4543C142.96 20.9916 141.879 16.5986 138.495 14.3638Z" fill="#EC0089"/>
<path d="M65.0686 0.944336L55.1828 19.9519L45.2968 0.944336H35.9854V27.7895H43.3429V11.3924L52.0412 27.7895H58.3242L67.0225 11.3924V27.7895H74.3801V0.944336H65.0686Z" fill="#231F20"/>
<path d="M89.5125 17.0308L94.4943 7.63358L99.4763 17.0308H89.5125ZM90.5382 0.944336L76.3066 27.7895H83.809L86.3249 23.0435H102.664L105.18 27.7895H113.131L98.8995 0.944336H90.5382Z" fill="#231F20"/>
<path d="M14.1747 0.461914H0.936523V6.55681H14.3407C20.0834 6.55681 23.7327 8.26469 25.0673 11.3998H4.93486V17.4125H25.0691C23.7359 20.5248 20.086 22.1763 14.3407 22.1763H0.936523V28.271H14.1747C25.1716 28.271 32.8376 23.7554 32.8376 14.4143C32.8376 5.07353 25.1716 0.461914 14.1747 0.461914Z" fill="#231F20"/>
<path d="M130.717 10.8856L126.616 13.1483C125.691 13.6589 125.691 14.9348 126.616 15.4451L130.717 17.7081C131.642 18.2183 132.798 17.5805 132.798 16.5597V12.034C132.798 11.0132 131.642 10.3754 130.717 10.8856Z" fill="#EC0089"/>
</svg>