<?xml version="1.0" encoding="utf-8"?>
<!-- Generator: Adobe Illustrator 16.0.0, SVG Export Plug-In . SVG Version: 6.00 Build 0)  -->
<!DOCTYPE svg PUBLIC "-//W3C//DTD SVG 1.1//EN" "http://www.w3.org/Graphics/SVG/1.1/DTD/svg11.dtd">
<svg version="1.1" id="Layer_1" xmlns="http://www.w3.org/2000/svg" xmlns:xlink="http://www.w3.org/1999/xlink" x="0px" y="0px"
	 width="298px" height="60px" viewBox="0 0 298 60" enable-background="new 0 0 298 60" xml:space="preserve">
<g>
	<g>
		<path fill="#ED1C24" d="M18.98,32.5c1.55,1.25,3.38,2.83,4.87,4.38c1.15,1.2,2.2,2.38,3.15,3.55l0.33,0.41l31.96-26.75V8.18
			c0-6.97-1.13-8.15-7.93-8.18c-2.88,0.01-5.64,0.05-5.64,0.05S20.16,31.1,18.98,32.5z"/>
		<path fill="#ED1C24" d="M3.83,24.21l1.52,0.57L13.6,0H8.31C1.44,0.01,0.29,1.17,0.29,8.15v14.97l0.25,0.09
			C1.03,23.33,2.19,23.64,3.83,24.21z"/>
		<path fill="#ED1C24" d="M16.47,30.72l1.03,0.7L36.79,0h-6.32H19.4c0,0-12.58,25.34-12.43,25.4C9.74,26.61,13.05,28.34,16.47,30.72
			z"/>
		<path fill="#ED1C24" d="M18.16,41.39C8.65,31.68,0.08,30.32,0,30.31v16.22c0,6.72,0.03,10.01,1.83,11.63
			C3.43,59.97,6.7,60,13.37,60h16.1C29.46,59.92,27.81,50.97,18.16,41.39z"/>
		<path fill="#ED1C24" d="M35.53,56.14c0.57,1.65,0.88,2.82,1,3.31l0.08,0.26h14.87c6.93-0.01,8.09-1.16,8.09-8.08V46.3l-24.52,8.54
			L35.53,56.14z"/>
		<path fill="#ED1C24" d="M59.57,22.95l-31.2,19.42l0.7,1.04c2.37,3.44,4.08,6.78,5.28,9.57c0.07,0.15,25.22-12.52,25.22-12.52
			V29.32V22.95z"/>
	</g>
	<g>
		<g>
			<path fill="#FFFFFF" d="M74.88,15.02c0-1.29,0.1-2.56,0.3-3.81c0.2-1.25,0.6-2.36,1.19-3.34c0.59-0.97,1.41-1.77,2.46-2.37
				c1.05-0.61,2.43-0.91,4.15-0.91c0.37,0,0.78,0.02,1.25,0.05c0.47,0.03,0.96,0.08,1.46,0.15s0.99,0.16,1.47,0.27
				s0.92,0.25,1.32,0.41c0.24,0.1,0.4,0.22,0.49,0.36c0.09,0.14,0.12,0.33,0.08,0.58l-0.27,1.24c-0.04,0.18-0.11,0.31-0.21,0.39
				c-0.1,0.08-0.29,0.1-0.57,0.06c-0.74-0.1-1.54-0.19-2.39-0.27s-1.66-0.12-2.45-0.12c-1.02,0-1.84,0.19-2.46,0.57
				c-0.62,0.38-1.09,0.91-1.42,1.57c-0.33,0.67-0.55,1.44-0.65,2.32c-0.1,0.87-0.15,1.81-0.15,2.79c0,0.99,0.06,1.92,0.18,2.78
				c0.12,0.87,0.35,1.62,0.69,2.26c0.34,0.63,0.82,1.13,1.43,1.49c0.61,0.36,1.4,0.55,2.38,0.55c0.89,0,1.71-0.04,2.47-0.12
				c0.76-0.09,1.55-0.17,2.37-0.28c0.28-0.04,0.47-0.02,0.57,0.06c0.1,0.08,0.18,0.23,0.24,0.43l0.24,1.15
				c0.12,0.44-0.05,0.76-0.51,0.96c-0.36,0.16-0.79,0.3-1.28,0.41c-0.49,0.11-0.99,0.21-1.5,0.29c-0.51,0.08-1.01,0.13-1.5,0.17
				c-0.49,0.03-0.91,0.04-1.28,0.04c-1.68,0-3.04-0.29-4.09-0.86c-1.05-0.58-1.87-1.34-2.46-2.28c-0.6-0.95-1-2.03-1.22-3.24
				C74.99,17.56,74.88,16.31,74.88,15.02z"/>
			<path fill-rule="evenodd" clip-rule="evenodd" fill="#FFFFFF" d="M103.48,17.23c0,0.87-0.06,1.76-0.17,2.69
				c-0.11,0.93-0.38,1.78-0.82,2.56c-0.44,0.77-1.1,1.41-1.98,1.9c-0.88,0.49-2.09,0.74-3.65,0.74c-1.5,0-2.68-0.25-3.54-0.74
				c-0.85-0.49-1.5-1.13-1.93-1.9c-0.43-0.78-0.69-1.63-0.79-2.56c-0.1-0.93-0.15-1.82-0.15-2.69c0-0.71,0.06-1.49,0.19-2.36
				c0.13-0.87,0.42-1.68,0.86-2.43c0.44-0.76,1.08-1.39,1.93-1.91c0.85-0.51,1.99-0.77,3.43-0.77c1.45,0,2.62,0.22,3.49,0.67
				c0.87,0.44,1.53,1.02,1.99,1.74c0.46,0.71,0.76,1.51,0.91,2.4C103.4,15.46,103.48,16.34,103.48,17.23z M100.15,17.44
				c0-0.8-0.05-1.5-0.13-2.1c-0.08-0.59-0.24-1.09-0.48-1.48c-0.24-0.39-0.57-0.69-0.99-0.89c-0.42-0.21-0.97-0.31-1.65-0.31
				c-0.64,0-1.16,0.1-1.56,0.31c-0.4,0.2-0.71,0.5-0.94,0.9c-0.23,0.41-0.39,0.91-0.48,1.5c-0.09,0.6-0.14,1.29-0.14,2.07
				c0,0.81,0.05,1.51,0.14,2.1c0.09,0.6,0.24,1.09,0.46,1.48c0.22,0.4,0.53,0.69,0.93,0.9c0.4,0.2,0.92,0.3,1.56,0.3
				c0.68,0,1.24-0.1,1.67-0.29s0.76-0.48,1-0.88c0.24-0.39,0.4-0.89,0.48-1.49C100.1,18.95,100.15,18.25,100.15,17.44z"/>
			<path fill="#FFFFFF" d="M118.33,10.06c0.46,0,0.69,0.23,0.69,0.67v13.54c0,0.2-0.04,0.36-0.12,0.46s-0.25,0.15-0.51,0.15h-1.98
				c-0.24,0-0.41-0.05-0.49-0.14c-0.1-0.09-0.14-0.24-0.14-0.47V12.88h-4.32l-0.66,7.19c-0.08,0.71-0.2,1.37-0.36,2
				c-0.16,0.62-0.43,1.17-0.81,1.63c-0.39,0.46-0.9,0.83-1.55,1.09c-0.65,0.26-1.51,0.39-2.57,0.39c-0.3,0-0.48-0.04-0.54-0.12
				c-0.06-0.08-0.1-0.22-0.12-0.42l-0.09-1.33c0-0.19,0.03-0.32,0.09-0.4s0.2-0.15,0.42-0.21c0.46-0.1,0.84-0.22,1.14-0.36
				c0.3-0.14,0.55-0.34,0.75-0.61c0.2-0.26,0.36-0.62,0.47-1.07c0.11-0.45,0.2-1.05,0.28-1.8l0.73-7.04
				c0.08-0.69,0.27-1.15,0.58-1.39c0.31-0.24,0.82-0.37,1.52-0.37H118.33z"/>
			<path fill="#FFFFFF" d="M134.95,24.71c-0.09,0.11-0.27,0.17-0.53,0.17h-1.92c-0.46,0-0.69-0.21-0.69-0.64v-5.83h-6.4v5.83
				c0,0.21-0.04,0.36-0.13,0.47c-0.09,0.11-0.26,0.17-0.5,0.17h-1.95c-0.44,0-0.66-0.21-0.66-0.64V10.73c0-0.44,0.22-0.67,0.66-0.67
				h1.95c0.24,0,0.41,0.06,0.5,0.18c0.09,0.13,0.13,0.29,0.13,0.49v5.05h6.4v-5.05c0-0.44,0.23-0.67,0.69-0.67h1.92
				c0.26,0,0.44,0.06,0.53,0.18c0.09,0.13,0.13,0.29,0.13,0.49v13.51C135.08,24.45,135.04,24.6,134.95,24.71z"/>
			<path fill-rule="evenodd" clip-rule="evenodd" fill="#FFFFFF" d="M141.35,18.38c0.02,0.76,0.11,1.4,0.26,1.9
				c0.15,0.51,0.38,0.91,0.67,1.2c0.3,0.29,0.68,0.5,1.12,0.62s0.97,0.18,1.59,0.18c0.54,0,1.18-0.04,1.92-0.12l1.98-0.21
				c0.28-0.05,0.47-0.04,0.59,0.01c0.1,0.05,0.18,0.22,0.22,0.5l0.18,1c0.04,0.22,0.04,0.4-0.02,0.54
				c-0.05,0.14-0.21,0.27-0.49,0.39c-0.3,0.13-0.65,0.23-1.05,0.32c-0.4,0.09-0.82,0.17-1.26,0.23s-0.88,0.11-1.32,0.15
				c-0.44,0.04-0.84,0.06-1.2,0.06c-1.44,0-2.59-0.21-3.46-0.63c-0.86-0.43-1.52-0.99-1.98-1.7c-0.46-0.7-0.76-1.51-0.91-2.43
				s-0.23-1.87-0.23-2.86c0-0.72,0.06-1.54,0.18-2.45c0.12-0.9,0.4-1.75,0.83-2.54c0.43-0.78,1.07-1.44,1.92-1.98
				c0.85-0.53,2.01-0.8,3.47-0.8c1.34,0,2.42,0.2,3.25,0.61c0.83,0.4,1.48,0.92,1.94,1.55c0.46,0.64,0.77,1.36,0.95,2.18
				c0.16,0.82,0.26,1.63,0.28,2.43c0.02,0.55-0.07,0.99-0.27,1.33c-0.2,0.35-0.6,0.52-1.2,0.52H141.35z M144.36,12.51
				c-0.56,0-1.02,0.08-1.39,0.24c-0.35,0.16-0.65,0.4-0.88,0.71s-0.4,0.69-0.49,1.14c-0.1,0.45-0.18,0.95-0.22,1.51h5.95
				c0-0.46-0.04-0.9-0.12-1.33c-0.08-0.43-0.23-0.82-0.44-1.16c-0.21-0.34-0.51-0.61-0.9-0.81
				C145.48,12.61,144.98,12.51,144.36,12.51z"/>
			<path fill="#FFFFFF" d="M152.9,10.23c0.07-0.11,0.21-0.17,0.44-0.17h2.33c0.2,0,0.33,0.05,0.38,0.16
				c0.05,0.1,0.07,0.25,0.07,0.45v3.72c0,0.42,0.03,0.8,0.09,1.15c0.06,0.34,0.17,0.63,0.32,0.87c0.15,0.25,0.36,0.44,0.64,0.58
				c0.28,0.14,0.64,0.21,1.07,0.21c0.3,0,0.63-0.04,1-0.12c0.37-0.08,0.74-0.18,1.09-0.3c0.36-0.12,0.7-0.25,1.01-0.38
				c0.3-0.13,0.56-0.25,0.76-0.35v-5.38c0-0.18,0.03-0.33,0.09-0.44s0.2-0.17,0.42-0.17h2.28c0.22,0,0.35,0.05,0.4,0.16
				c0.05,0.1,0.08,0.25,0.08,0.45V24.3c0,0.21-0.03,0.35-0.08,0.44c-0.05,0.09-0.18,0.14-0.4,0.14h-2.28
				c-0.22,0-0.36-0.06-0.42-0.17s-0.09-0.24-0.09-0.41v-5.62h-0.03c-0.58,0.32-1.3,0.64-2.15,0.95s-1.71,0.47-2.57,0.47
				c-1.04,0-1.86-0.15-2.47-0.45c-0.61-0.3-1.07-0.71-1.38-1.21c-0.31-0.51-0.51-1.07-0.59-1.69c-0.08-0.63-0.12-1.26-0.12-1.91
				v-4.17C152.79,10.49,152.83,10.34,152.9,10.23z"/>
			<path fill="#FFFFFF" d="M181.29,24.71c-0.09,0.11-0.26,0.17-0.52,0.17h-1.92c-0.46,0-0.69-0.21-0.69-0.64v-5.83h-6.4v5.83
				c0,0.21-0.04,0.36-0.13,0.47c-0.09,0.11-0.26,0.17-0.5,0.17h-1.95c-0.44,0-0.66-0.21-0.66-0.64V10.73c0-0.44,0.22-0.67,0.66-0.67
				h1.95c0.24,0,0.41,0.06,0.5,0.18c0.09,0.13,0.13,0.29,0.13,0.49v5.05h6.4v-5.05c0-0.44,0.23-0.67,0.69-0.67h1.92
				c0.26,0,0.43,0.06,0.52,0.18c0.09,0.13,0.14,0.29,0.14,0.49v13.51C181.43,24.45,181.38,24.6,181.29,24.71z"/>
			<path fill-rule="evenodd" clip-rule="evenodd" fill="#FFFFFF" d="M193.72,23.16c-0.76,0.58-1.61,1.05-2.56,1.42
				c-0.95,0.36-1.94,0.54-2.96,0.54c-0.8,0-1.46-0.11-2-0.32c-0.53-0.21-0.95-0.5-1.26-0.87c-0.31-0.38-0.53-0.82-0.66-1.35
				c-0.13-0.52-0.19-1.11-0.19-1.75c-0.02-1.78,0.44-3.06,1.38-3.86c0.94-0.79,2.36-1.19,4.26-1.19h3.84v-0.8
				c0-0.44-0.04-0.82-0.13-1.14c-0.09-0.31-0.26-0.57-0.5-0.78c-0.24-0.2-0.56-0.34-0.96-0.42c-0.4-0.09-0.91-0.13-1.53-0.13
				c-0.24,0-0.53,0.01-0.88,0.03l-1.08,0.06c-0.37,0.02-0.74,0.05-1.12,0.09c-0.36,0.05-0.7,0.07-1,0.09
				c-0.3,0.04-0.51,0.05-0.61,0.02c-0.12-0.03-0.19-0.16-0.23-0.38l-0.27-1.1c-0.04-0.2-0.02-0.37,0.06-0.5
				c0.08-0.13,0.29-0.26,0.63-0.4c0.32-0.12,0.7-0.22,1.14-0.3s0.89-0.14,1.35-0.19c0.46-0.05,0.92-0.09,1.37-0.12
				c0.45-0.03,0.85-0.05,1.21-0.05c1.3,0,2.34,0.13,3.11,0.39c0.77,0.27,1.36,0.63,1.76,1.11c0.4,0.47,0.66,1.05,0.78,1.74
				c0.12,0.68,0.18,1.45,0.18,2.29v5.84c0,0.3,0.01,0.54,0.04,0.71c0.03,0.17,0.08,0.3,0.15,0.39s0.18,0.16,0.32,0.2
				c0.14,0.04,0.33,0.07,0.57,0.09c0.22,0.02,0.37,0.06,0.45,0.12s0.12,0.17,0.12,0.33v1.27c0,0.35-0.24,0.56-0.72,0.64
				c-0.24,0.04-0.48,0.07-0.72,0.1c-0.24,0.03-0.47,0.05-0.69,0.05c-0.7,0-1.27-0.13-1.7-0.39c-0.43-0.26-0.73-0.75-0.89-1.46
				L193.72,23.16z M193.54,18.14h-3.66c-0.76,0-1.36,0.17-1.8,0.53c-0.44,0.35-0.66,1.02-0.66,2.01c0,0.66,0.14,1.12,0.41,1.37
				s0.75,0.38,1.45,0.38c0.32,0,0.67-0.04,1.05-0.12s0.76-0.19,1.14-0.33c0.38-0.15,0.75-0.3,1.11-0.47
				c0.36-0.17,0.68-0.34,0.96-0.5V18.14z"/>
			<path fill-rule="evenodd" clip-rule="evenodd" fill="#FFFFFF" d="M212.29,10.03c0.28,0,0.47,0.05,0.57,0.14s0.15,0.25,0.15,0.47
				v13.6c0,0.41-0.24,0.61-0.72,0.61h-1.89c-0.26,0-0.44-0.05-0.53-0.15c-0.09-0.1-0.14-0.25-0.14-0.46V19.1h-3.03
				c-0.52,0.04-0.95,0.21-1.3,0.5c-0.35,0.3-0.67,0.86-0.95,1.71l-0.96,2.93c-0.08,0.25-0.18,0.41-0.3,0.5
				c-0.12,0.09-0.32,0.14-0.6,0.14h-1.98c-0.28,0-0.45-0.06-0.5-0.17c-0.05-0.11-0.04-0.28,0.02-0.5l1.05-3.23
				c0.22-0.61,0.45-1.14,0.69-1.59c0.24-0.45,0.58-0.8,1.02-1.04c-0.44-0.16-0.8-0.38-1.08-0.65c-0.28-0.27-0.5-0.58-0.66-0.91
				c-0.16-0.33-0.27-0.68-0.33-1.04c-0.06-0.37-0.09-0.72-0.09-1.06c0-0.77,0.14-1.44,0.42-2.01c0.28-0.58,0.66-1.06,1.14-1.45
				c0.48-0.4,1.05-0.69,1.7-0.89c0.65-0.21,1.33-0.31,2.05-0.31H212.29z M203.97,14.7c0,0.58,0.18,1.03,0.53,1.35
				c0.35,0.32,0.94,0.48,1.78,0.48h3.45v-3.74h-3.3c-0.72,0-1.31,0.16-1.77,0.47C204.2,13.59,203.97,14.07,203.97,14.7z"/>
		</g>
		<g>
			<path fill="#FFFFFF" d="M233.4,10.06c0.46,0,0.69,0.23,0.69,0.67v13.54c0,0.2-0.04,0.36-0.12,0.46c-0.08,0.1-0.25,0.15-0.51,0.15
				h-1.98c-0.24,0-0.4-0.05-0.49-0.14c-0.09-0.09-0.14-0.24-0.14-0.47V12.88h-4.32l-0.66,7.19c-0.08,0.71-0.2,1.37-0.36,2
				c-0.16,0.62-0.43,1.17-0.81,1.63c-0.38,0.46-0.9,0.83-1.55,1.09c-0.65,0.26-1.5,0.39-2.56,0.39c-0.31,0-0.49-0.04-0.55-0.12
				s-0.1-0.22-0.12-0.42l-0.09-1.33c0-0.19,0.03-0.32,0.09-0.4s0.2-0.15,0.43-0.21c0.45-0.1,0.83-0.22,1.14-0.36
				c0.3-0.14,0.55-0.34,0.75-0.61c0.2-0.26,0.35-0.62,0.46-1.07c0.11-0.45,0.21-1.05,0.29-1.8l0.72-7.04
				c0.08-0.69,0.27-1.15,0.58-1.39c0.31-0.25,0.82-0.37,1.52-0.37H233.4z"/>
			<path fill-rule="evenodd" clip-rule="evenodd" fill="#FFFFFF" d="M246.31,23.16c-0.76,0.58-1.62,1.05-2.57,1.42
				c-0.95,0.36-1.94,0.54-2.96,0.54c-0.8,0-1.46-0.11-1.99-0.32c-0.53-0.21-0.95-0.5-1.26-0.87c-0.31-0.38-0.53-0.82-0.66-1.35
				c-0.14-0.52-0.2-1.11-0.2-1.75c-0.02-1.78,0.44-3.06,1.38-3.86c0.94-0.79,2.36-1.19,4.26-1.19h3.85v-0.8
				c0-0.44-0.05-0.82-0.14-1.14c-0.09-0.31-0.25-0.57-0.49-0.78c-0.24-0.2-0.56-0.34-0.96-0.42c-0.4-0.09-0.92-0.13-1.54-0.13
				c-0.24,0-0.53,0.01-0.88,0.03l-1.08,0.06c-0.37,0.02-0.74,0.05-1.11,0.09c-0.37,0.05-0.71,0.07-1.01,0.09
				c-0.3,0.04-0.5,0.05-0.61,0.02c-0.11-0.03-0.19-0.16-0.23-0.38l-0.27-1.1c-0.04-0.2-0.02-0.37,0.06-0.5
				c0.08-0.13,0.29-0.26,0.63-0.4c0.32-0.12,0.7-0.22,1.14-0.3s0.89-0.14,1.35-0.19c0.46-0.05,0.92-0.09,1.37-0.12
				c0.45-0.03,0.86-0.05,1.22-0.05c1.3,0,2.33,0.13,3.1,0.39c0.77,0.27,1.36,0.63,1.76,1.11c0.4,0.47,0.66,1.05,0.78,1.74
				c0.12,0.68,0.18,1.45,0.18,2.29v5.84c0,0.3,0.01,0.54,0.04,0.71c0.03,0.17,0.08,0.3,0.15,0.39c0.07,0.09,0.18,0.16,0.32,0.2
				s0.33,0.07,0.57,0.09c0.22,0.02,0.37,0.06,0.45,0.12s0.12,0.17,0.12,0.33v1.27c0,0.35-0.24,0.56-0.72,0.64
				c-0.24,0.04-0.48,0.07-0.72,0.1c-0.24,0.03-0.47,0.05-0.69,0.05c-0.7,0-1.27-0.13-1.7-0.39c-0.43-0.26-0.72-0.75-0.88-1.46
				L246.31,23.16z M246.13,18.14h-3.67c-0.76,0-1.36,0.17-1.8,0.52c-0.44,0.36-0.66,1.03-0.66,2.02c0,0.66,0.14,1.12,0.41,1.37
				s0.75,0.38,1.45,0.38c0.32,0,0.67-0.04,1.06-0.12c0.37-0.08,0.75-0.19,1.14-0.33c0.37-0.15,0.75-0.3,1.11-0.47
				c0.36-0.17,0.68-0.34,0.96-0.5V18.14z"/>
			<path fill-rule="evenodd" clip-rule="evenodd" fill="#FFFFFF" d="M267.47,22.19l0.96,0.12c0.22,0.04,0.37,0.12,0.45,0.26
				c0.08,0.12,0.12,0.27,0.12,0.43c0,0.1,0,0.19-0.01,0.26c-0.01,0.07-0.02,0.14-0.02,0.22l-0.13,2.35
				c-0.05,0.78-0.1,1.56-0.14,2.35c-0.02,0.32-0.08,0.52-0.18,0.61s-0.24,0.14-0.42,0.14h-1.56c-0.22,0-0.36-0.05-0.43-0.14
				c-0.07-0.09-0.12-0.27-0.14-0.56l-0.12-3.35h-10.32l-0.28,3.35c-0.03,0.29-0.08,0.47-0.14,0.56c-0.07,0.09-0.17,0.14-0.34,0.14
				h-1.74c-0.2,0-0.33-0.05-0.39-0.15c-0.06-0.1-0.1-0.29-0.12-0.58c-0.04-0.86-0.07-1.73-0.09-2.6c-0.02-0.86-0.03-1.74-0.03-2.63
				c0-0.22,0.06-0.38,0.18-0.48c0.12-0.1,0.26-0.17,0.42-0.21l0.81-0.12c0.62-0.41,1.06-0.99,1.33-1.76
				c0.25-0.76,0.49-1.77,0.69-3.02l0.93-6.02c0.1-0.46,0.3-0.79,0.61-0.99c0.31-0.2,0.76-0.31,1.34-0.31h7.95
				c0.28,0,0.49,0.08,0.62,0.23c0.13,0.15,0.19,0.35,0.19,0.59V22.19z M264.2,12.88h-4.59c-0.2,1.59-0.38,2.92-0.53,3.97
				c-0.15,1.05-0.29,1.92-0.43,2.61s-0.29,1.23-0.44,1.62s-0.32,0.74-0.52,1.05h6.51V12.88z"/>
			<path fill-rule="evenodd" clip-rule="evenodd" fill="#FFFFFF" d="M271.76,24.88c-0.28,0-0.44-0.05-0.5-0.15
				c-0.07-0.1-0.09-0.26-0.09-0.49V10.61c0-0.22,0.05-0.37,0.16-0.44c0.11-0.07,0.29-0.11,0.56-0.11h1.92c0.24,0,0.4,0.04,0.49,0.12
				c0.09,0.09,0.14,0.23,0.14,0.43v4.93h3.63c1.04,0,1.9,0.14,2.59,0.42c0.7,0.28,1.24,0.64,1.63,1.09
				c0.39,0.44,0.66,0.94,0.82,1.51c0.16,0.56,0.24,1.13,0.24,1.69c0,0.77-0.14,1.44-0.43,2.01c-0.3,0.58-0.68,1.06-1.17,1.45
				c-0.49,0.4-1.08,0.69-1.75,0.88s-1.39,0.29-2.17,0.29H271.76z M280.2,20.18c0-0.59-0.17-1.07-0.51-1.42
				c-0.34-0.35-0.94-0.53-1.8-0.53h-3.45v3.9h3.3c0.74,0,1.33-0.17,1.78-0.49C279.97,21.31,280.2,20.83,280.2,20.18z"/>
			<path fill-rule="evenodd" clip-rule="evenodd" fill="#FFFFFF" d="M297.28,10.03c0.28,0,0.47,0.05,0.57,0.14s0.15,0.25,0.15,0.47
				v13.6c0,0.41-0.24,0.61-0.72,0.61h-1.89c-0.26,0-0.44-0.05-0.53-0.15c-0.09-0.1-0.13-0.26-0.13-0.46V19.1h-3.03
				c-0.53,0.04-0.96,0.21-1.31,0.5c-0.35,0.3-0.66,0.86-0.95,1.71l-0.96,2.93c-0.08,0.24-0.18,0.41-0.3,0.5
				c-0.11,0.09-0.32,0.14-0.6,0.14h-1.98c-0.28,0-0.44-0.06-0.49-0.17c-0.05-0.11-0.05-0.28,0.01-0.5l1.05-3.23
				c0.22-0.61,0.45-1.14,0.69-1.59c0.24-0.45,0.58-0.8,1.02-1.04c-0.44-0.16-0.8-0.38-1.08-0.65c-0.28-0.28-0.5-0.58-0.66-0.91
				c-0.16-0.33-0.27-0.68-0.33-1.04c-0.06-0.37-0.09-0.72-0.09-1.06c0-0.77,0.14-1.44,0.42-2.01c0.28-0.58,0.66-1.06,1.14-1.45
				c0.48-0.4,1.05-0.69,1.7-0.89c0.65-0.21,1.34-0.31,2.06-0.31H297.28z M288.96,14.7c0,0.58,0.18,1.03,0.53,1.35
				c0.35,0.32,0.95,0.48,1.79,0.48h3.45v-3.74h-3.3c-0.72,0-1.31,0.16-1.77,0.47C289.19,13.58,288.96,14.06,288.96,14.7z"/>
		</g>
	</g>
	<g>
		<path fill-rule="evenodd" clip-rule="evenodd" fill="#FFFFFF" d="M74.88,47.65c0-0.58,0.07-1.15,0.19-1.71
			c0.13-0.56,0.36-1.07,0.7-1.53c0.33-0.45,0.79-0.82,1.36-1.1c0.57-0.28,1.29-0.43,2.17-0.46v-2.97c0-0.15,0.07-0.23,0.21-0.23
			h0.59c0.07,0,0.13,0.01,0.16,0.04c0.03,0.02,0.05,0.09,0.05,0.19v2.97c0.87,0.03,1.59,0.17,2.16,0.44
			c0.57,0.27,1.02,0.62,1.35,1.06c0.34,0.43,0.57,0.93,0.7,1.49c0.12,0.56,0.19,1.15,0.19,1.75c0,0.67-0.08,1.31-0.24,1.9
			c-0.16,0.58-0.41,1.1-0.76,1.53s-0.8,0.78-1.36,1.04c-0.57,0.27-1.25,0.41-2.04,0.44v3.03c0,0.14-0.06,0.21-0.17,0.21h-0.63
			c-0.14,0-0.21-0.08-0.21-0.23V52.5c-0.8-0.02-1.48-0.15-2.05-0.41c-0.56-0.25-1.02-0.59-1.37-1.02c-0.35-0.43-0.6-0.94-0.76-1.53
			C74.96,48.95,74.88,48.32,74.88,47.65z M75.95,47.72c0,1.25,0.27,2.19,0.8,2.81c0.54,0.62,1.39,0.96,2.55,1.03v-7.73
			c-0.64,0.01-1.17,0.11-1.6,0.31c-0.43,0.19-0.77,0.45-1.02,0.79c-0.26,0.34-0.45,0.75-0.56,1.22
			C76.01,46.62,75.95,47.15,75.95,47.72z M83.64,47.72c0-0.57-0.06-1.1-0.17-1.57c-0.12-0.47-0.3-0.88-0.55-1.22
			c-0.26-0.34-0.6-0.6-1.03-0.79c-0.43-0.2-0.96-0.3-1.58-0.31v7.73c1.14-0.07,1.98-0.41,2.52-1.03
			C83.37,49.91,83.64,48.97,83.64,47.72z"/>
		<path fill-rule="evenodd" clip-rule="evenodd" fill="#FFFFFF" d="M92.76,51.27c-0.28,0.16-0.56,0.32-0.84,0.47
			c-0.28,0.15-0.58,0.28-0.89,0.39c-0.32,0.12-0.66,0.21-1.01,0.28c-0.36,0.07-0.74,0.1-1.16,0.1c-0.87,0-1.49-0.21-1.87-0.64
			c-0.38-0.43-0.57-1.07-0.57-1.91c0-1.09,0.27-1.9,0.81-2.41c0.54-0.51,1.4-0.77,2.6-0.77h2.95v-0.85c0-0.39-0.04-0.71-0.11-0.98
			c-0.07-0.26-0.19-0.48-0.38-0.65c-0.18-0.18-0.43-0.3-0.75-0.38c-0.32-0.09-0.72-0.13-1.2-0.13c-0.41,0-0.86,0.02-1.35,0.06
			c-0.5,0.04-0.97,0.08-1.41,0.13c-0.18,0.02-0.27-0.03-0.29-0.13l-0.07-0.35c0-0.12,0.07-0.22,0.21-0.28
			c0.2-0.08,0.44-0.15,0.7-0.2c0.27-0.05,0.54-0.09,0.82-0.12c0.28-0.03,0.55-0.06,0.81-0.07c0.26-0.01,0.49-0.02,0.7-0.02
			c0.71,0,1.28,0.07,1.72,0.2c0.44,0.14,0.78,0.34,1.02,0.62c0.25,0.27,0.42,0.62,0.51,1.03c0.09,0.42,0.13,0.9,0.13,1.45v4.72
			c0,0.18,0.02,0.31,0.04,0.41c0.03,0.1,0.07,0.17,0.13,0.22c0.05,0.05,0.13,0.09,0.23,0.11c0.1,0.02,0.24,0.03,0.4,0.04
			c0.14,0,0.21,0.06,0.21,0.18v0.38c0,0.06-0.02,0.12-0.05,0.15c-0.04,0.04-0.12,0.07-0.23,0.1c-0.62,0.06-1.07,0.02-1.34-0.13
			c-0.26-0.16-0.41-0.5-0.45-1.02H92.76z M92.78,47.72h-3.09c-0.33,0-0.62,0.03-0.89,0.1c-0.27,0.06-0.5,0.18-0.69,0.34
			c-0.19,0.17-0.33,0.39-0.43,0.67c-0.11,0.28-0.16,0.64-0.16,1.08c0,0.64,0.13,1.07,0.37,1.3c0.25,0.23,0.7,0.35,1.35,0.35
			c0.28,0,0.59-0.05,0.93-0.14s0.68-0.2,1.01-0.32c0.33-0.13,0.63-0.26,0.91-0.4c0.28-0.13,0.51-0.25,0.69-0.35V47.72z"/>
		<path fill-rule="evenodd" clip-rule="evenodd" fill="#FFFFFF" d="M96.11,47.99c0-1.02,0.03-1.98,0.08-2.86
			c0.06-0.88,0.21-1.67,0.44-2.37c0.24-0.71,0.6-1.31,1.1-1.81c0.49-0.5,1.18-0.88,2.05-1.15c0.23-0.06,0.47-0.12,0.73-0.18
			l0.78-0.17l0.78-0.16l0.7-0.12c0.1-0.03,0.17-0.03,0.2-0.02c0.03,0.01,0.06,0.06,0.09,0.15l0.09,0.41
			c0.03,0.11,0.02,0.19-0.01,0.24c-0.03,0.04-0.09,0.08-0.18,0.1l-1.3,0.27l-1.06,0.23c-0.59,0.15-1.09,0.34-1.49,0.57
			c-0.4,0.22-0.73,0.5-0.99,0.83c-0.26,0.33-0.46,0.73-0.6,1.18c-0.14,0.45-0.24,0.99-0.29,1.6c0,0.01,0.01,0.02,0.02,0.02
			l0.02,0.02c0.29-0.41,0.69-0.74,1.2-0.98c0.51-0.24,1.09-0.36,1.74-0.36c0.73,0,1.32,0.13,1.77,0.39c0.45,0.26,0.8,0.6,1.06,1.01
			c0.25,0.41,0.43,0.86,0.52,1.38c0.1,0.51,0.14,1.01,0.14,1.51c0,0.54-0.04,1.09-0.12,1.66c-0.08,0.57-0.26,1.08-0.54,1.54
			c-0.28,0.46-0.68,0.84-1.19,1.14c-0.51,0.3-1.21,0.45-2.08,0.45c-0.83,0-1.48-0.14-1.97-0.42c-0.48-0.28-0.85-0.64-1.1-1.08
			c-0.25-0.44-0.42-0.93-0.49-1.46C96.14,49.02,96.11,48.5,96.11,47.99z M100.02,44.4c-0.61,0-1.1,0.12-1.47,0.35
			c-0.37,0.23-0.66,0.52-0.86,0.87c-0.2,0.36-0.34,0.74-0.41,1.17c-0.07,0.42-0.1,0.82-0.1,1.19c0,0.49,0.02,0.95,0.08,1.37
			c0.06,0.43,0.18,0.82,0.37,1.15s0.46,0.6,0.81,0.79c0.34,0.19,0.8,0.28,1.37,0.28c0.59,0,1.07-0.09,1.44-0.29
			c0.36-0.2,0.65-0.47,0.85-0.81c0.19-0.34,0.33-0.73,0.4-1.18s0.1-0.92,0.1-1.42c0-0.44-0.03-0.87-0.09-1.28
			c-0.07-0.42-0.19-0.79-0.37-1.11c-0.18-0.32-0.44-0.58-0.78-0.78C101.01,44.5,100.57,44.4,100.02,44.4z"/>
		<path fill-rule="evenodd" clip-rule="evenodd" fill="#FFFFFF" d="M106.75,55.43c0,0.13-0.02,0.21-0.07,0.25
			c-0.04,0.04-0.12,0.06-0.22,0.06h-0.52c-0.17,0-0.25-0.1-0.25-0.31V43.31c0-0.19,0.08-0.29,0.25-0.29h0.52
			c0.1,0,0.18,0.02,0.22,0.06c0.05,0.04,0.07,0.12,0.07,0.23l-0.02,0.84c0.13-0.08,0.32-0.2,0.57-0.35
			c0.24-0.15,0.52-0.29,0.84-0.43c0.32-0.14,0.66-0.27,1.02-0.38c0.36-0.1,0.73-0.16,1.09-0.16c0.56,0,1.03,0.1,1.4,0.29
			c0.38,0.19,0.68,0.48,0.9,0.87c0.22,0.39,0.38,0.88,0.46,1.47c0.09,0.59,0.14,1.27,0.14,2.05c0,0.82-0.06,1.54-0.16,2.17
			c-0.11,0.62-0.3,1.15-0.56,1.57c-0.27,0.42-0.63,0.74-1.09,0.95c-0.47,0.21-1.04,0.31-1.74,0.31c-0.37,0-0.79-0.04-1.26-0.12
			c-0.48-0.08-1-0.24-1.57-0.5l-0.02,0.04V55.43z M106.75,51.08c0.57,0.17,1.09,0.3,1.57,0.38c0.47,0.08,0.94,0.11,1.39,0.11
			c0.47,0,0.85-0.06,1.15-0.21c0.3-0.14,0.53-0.36,0.71-0.68c0.18-0.31,0.3-0.73,0.37-1.26c0.07-0.52,0.1-1.17,0.1-1.94
			c0-0.75-0.03-1.37-0.09-1.85c-0.06-0.48-0.17-0.86-0.31-1.14c-0.15-0.27-0.35-0.46-0.59-0.57c-0.25-0.1-0.55-0.15-0.92-0.15
			c-0.27,0-0.56,0.05-0.88,0.15c-0.33,0.09-0.65,0.2-0.96,0.33c-0.32,0.13-0.61,0.26-0.88,0.4c-0.28,0.13-0.49,0.24-0.66,0.33V51.08
			z"/>
		<path fill="#FFFFFF" d="M115.01,43.29c0-0.18,0.09-0.27,0.27-0.27h0.52c0.16,0,0.24,0.09,0.24,0.27v7.29l2.4-3.36l2.91-3.97
			l0.17-0.16c0.04-0.04,0.12-0.07,0.22-0.07h0.45c0.18,0,0.27,0.09,0.27,0.25v8.82c0,0.18-0.1,0.27-0.29,0.27h-0.49
			c-0.19,0-0.29-0.09-0.29-0.27v-7.5l-2.05,2.94l-3.37,4.64c-0.04,0.05-0.08,0.09-0.13,0.13c-0.04,0.04-0.12,0.06-0.22,0.06h-0.36
			c-0.16,0-0.25-0.09-0.25-0.27V43.29z"/>
		<path fill="#FFFFFF" d="M125.52,52.15c0,0.14-0.07,0.21-0.21,0.21h-0.66c-0.13,0-0.19-0.07-0.19-0.21v-8.92
			c0-0.14,0.06-0.21,0.19-0.21h0.66c0.14,0,0.21,0.07,0.21,0.21v3.9h1.64c0.17,0,0.34-0.02,0.53-0.05c0.19-0.03,0.38-0.11,0.56-0.22
			c0.19-0.12,0.36-0.28,0.53-0.49c0.16-0.21,0.3-0.49,0.42-0.83l0.76-2.27c0.05-0.16,0.16-0.25,0.32-0.25h0.48
			c0.14,0,0.22,0.03,0.24,0.08c0.01,0.05,0.01,0.13-0.03,0.23l-0.74,2.24c-0.18,0.53-0.38,0.95-0.59,1.28
			c-0.22,0.32-0.51,0.54-0.86,0.64c0.23,0.07,0.42,0.15,0.59,0.26c0.16,0.11,0.31,0.24,0.44,0.4c0.12,0.16,0.23,0.35,0.32,0.58
			l0.29,0.76l0.85,2.56c0.03,0.11,0.03,0.18,0.01,0.24c-0.02,0.05-0.09,0.07-0.22,0.07h-0.55c-0.08,0-0.14-0.01-0.19-0.04
			c-0.05-0.02-0.09-0.09-0.11-0.19l-0.8-2.45c-0.12-0.35-0.25-0.63-0.39-0.84c-0.15-0.21-0.31-0.37-0.5-0.49
			c-0.18-0.11-0.38-0.19-0.59-0.23c-0.21-0.03-0.43-0.05-0.67-0.05h-1.74V52.15z"/>
		<path fill-rule="evenodd" clip-rule="evenodd" fill="#FFFFFF" d="M138.89,51.27c-0.28,0.16-0.56,0.32-0.84,0.47
			c-0.28,0.15-0.58,0.28-0.89,0.39c-0.32,0.12-0.66,0.21-1.01,0.28c-0.36,0.07-0.75,0.1-1.17,0.1c-0.86,0-1.48-0.21-1.86-0.64
			c-0.38-0.43-0.57-1.07-0.57-1.91c0-1.09,0.27-1.9,0.81-2.41c0.54-0.51,1.4-0.77,2.6-0.77h2.95v-0.85c0-0.39-0.04-0.71-0.11-0.98
			c-0.07-0.26-0.19-0.48-0.38-0.65c-0.18-0.18-0.43-0.3-0.75-0.38c-0.32-0.09-0.72-0.13-1.2-0.13c-0.41,0-0.86,0.02-1.35,0.06
			c-0.5,0.04-0.97,0.08-1.41,0.13c-0.18,0.02-0.27-0.03-0.29-0.13l-0.07-0.35c0-0.12,0.07-0.22,0.21-0.28
			c0.2-0.08,0.43-0.15,0.7-0.2c0.27-0.05,0.54-0.09,0.82-0.12c0.28-0.03,0.55-0.06,0.81-0.07c0.26-0.01,0.49-0.02,0.69-0.02
			c0.71,0,1.29,0.07,1.73,0.2c0.44,0.14,0.78,0.34,1.03,0.62c0.24,0.27,0.41,0.62,0.5,1.03c0.09,0.42,0.13,0.9,0.13,1.45v4.72
			c0,0.18,0.02,0.31,0.04,0.41c0.03,0.1,0.07,0.17,0.13,0.22c0.05,0.05,0.13,0.09,0.23,0.11s0.24,0.03,0.4,0.04
			c0.14,0,0.21,0.06,0.21,0.18v0.38c0,0.06-0.02,0.12-0.06,0.15c-0.03,0.04-0.11,0.07-0.22,0.1c-0.63,0.06-1.07,0.02-1.34-0.13
			c-0.26-0.16-0.42-0.5-0.45-1.02H138.89z M138.91,47.72h-3.09c-0.33,0-0.63,0.03-0.89,0.1c-0.27,0.06-0.5,0.18-0.69,0.34
			c-0.19,0.17-0.33,0.39-0.43,0.67c-0.11,0.28-0.16,0.64-0.16,1.08c0,0.64,0.13,1.07,0.37,1.3c0.25,0.23,0.7,0.35,1.35,0.35
			c0.27,0,0.59-0.05,0.93-0.14c0.34-0.09,0.68-0.2,1.01-0.32c0.33-0.13,0.63-0.26,0.91-0.4c0.28-0.13,0.51-0.25,0.69-0.35V47.72z"/>
		<path fill="#FFFFFF" d="M154.89,52.36h-0.53c-0.07,0-0.14-0.01-0.2-0.05c-0.06-0.03-0.09-0.09-0.09-0.2v-7l-1.65,3.15l-1.31,2.43
			c-0.04,0.05-0.08,0.1-0.13,0.14s-0.11,0.06-0.17,0.06h-0.42c-0.18,0-0.29-0.07-0.34-0.2l-0.64-1.17
			c-0.21-0.38-0.41-0.77-0.62-1.17c-0.27-0.53-0.54-1.07-0.8-1.61c-0.26-0.53-0.54-1.07-0.85-1.61v6.98c0,0.17-0.1,0.25-0.29,0.25
			h-0.48c-0.2,0-0.29-0.08-0.29-0.25v-8.84c0-0.16,0.09-0.25,0.27-0.25h0.54c0.1,0,0.18,0.02,0.22,0.05
			c0.05,0.03,0.09,0.08,0.13,0.15c0.31,0.57,0.62,1.14,0.93,1.72l0.91,1.75l1.52,2.97l1.59-3.03l1.83-3.4
			c0.06-0.14,0.19-0.21,0.38-0.21h0.47c0.18,0,0.27,0.09,0.27,0.25v8.84C155.14,52.28,155.06,52.36,154.89,52.36z"/>
		<path fill-rule="evenodd" clip-rule="evenodd" fill="#FFFFFF" d="M160.76,42.83c0.79,0,1.44,0.12,1.93,0.37
			c0.49,0.24,0.87,0.55,1.15,0.94c0.28,0.4,0.47,0.84,0.56,1.35c0.1,0.5,0.14,1.02,0.14,1.54c0,0.3-0.05,0.53-0.16,0.69
			c-0.11,0.17-0.31,0.25-0.62,0.25h-5.65c0.02,0.64,0.07,1.19,0.14,1.64c0.07,0.45,0.2,0.82,0.38,1.1c0.19,0.28,0.45,0.49,0.78,0.62
			c0.34,0.12,0.79,0.19,1.35,0.19c0.19,0,0.41-0.01,0.68-0.03c0.27-0.02,0.54-0.04,0.82-0.08l0.81-0.08l0.64-0.06
			c0.12-0.01,0.21,0.04,0.24,0.15l0.06,0.31c0.04,0.14-0.03,0.25-0.21,0.32c-0.15,0.06-0.35,0.11-0.61,0.17
			c-0.25,0.06-0.52,0.11-0.82,0.15c-0.29,0.05-0.58,0.08-0.88,0.11c-0.3,0.02-0.57,0.03-0.81,0.03c-0.85,0-1.52-0.13-2.01-0.4
			c-0.49-0.27-0.86-0.62-1.1-1.07c-0.25-0.45-0.41-0.97-0.47-1.56c-0.06-0.6-0.1-1.22-0.1-1.86c0-0.54,0.04-1.1,0.1-1.67
			c0.06-0.57,0.22-1.09,0.47-1.55c0.24-0.46,0.62-0.83,1.12-1.13C159.19,42.98,159.88,42.83,160.76,42.83z M160.76,43.77
			c-0.59,0-1.05,0.07-1.38,0.22c-0.34,0.15-0.6,0.37-0.79,0.65c-0.18,0.28-0.3,0.63-0.36,1.04c-0.06,0.41-0.1,0.88-0.12,1.41h5.33
			c-0.01-0.4-0.05-0.8-0.1-1.2c-0.05-0.4-0.16-0.75-0.35-1.07c-0.18-0.31-0.45-0.57-0.8-0.76S161.36,43.77,160.76,43.77z"/>
		<path fill-rule="evenodd" clip-rule="evenodd" fill="#FFFFFF" d="M166.22,47.99c0-1.02,0.03-1.98,0.08-2.86
			c0.06-0.88,0.2-1.67,0.44-2.37c0.24-0.71,0.61-1.31,1.1-1.81c0.49-0.5,1.18-0.88,2.05-1.15c0.23-0.06,0.47-0.12,0.73-0.18
			l0.78-0.17l0.78-0.16l0.7-0.12c0.1-0.03,0.17-0.03,0.2-0.02c0.03,0.01,0.06,0.06,0.09,0.15l0.09,0.41
			c0.03,0.11,0.03,0.19-0.01,0.24c-0.03,0.04-0.09,0.08-0.18,0.1l-1.3,0.27l-1.06,0.23c-0.59,0.15-1.09,0.34-1.49,0.57
			c-0.4,0.22-0.73,0.5-0.99,0.83c-0.26,0.33-0.46,0.73-0.6,1.18c-0.14,0.45-0.24,0.99-0.29,1.6c0,0.01,0.01,0.02,0.02,0.02
			l0.02,0.02c0.29-0.41,0.69-0.74,1.2-0.98c0.51-0.24,1.09-0.36,1.74-0.36c0.73,0,1.32,0.13,1.77,0.39c0.45,0.26,0.8,0.6,1.06,1.01
			c0.25,0.41,0.43,0.86,0.52,1.38c0.1,0.51,0.15,1.01,0.15,1.51c0,0.54-0.05,1.09-0.13,1.66c-0.08,0.57-0.26,1.08-0.54,1.54
			c-0.28,0.46-0.68,0.84-1.19,1.14c-0.52,0.3-1.21,0.45-2.09,0.45c-0.82,0-1.47-0.14-1.96-0.42c-0.48-0.28-0.85-0.64-1.1-1.08
			c-0.26-0.44-0.42-0.93-0.49-1.46C166.25,49.02,166.22,48.5,166.22,47.99z M170.13,44.4c-0.61,0-1.1,0.12-1.47,0.35
			c-0.37,0.23-0.66,0.52-0.86,0.87c-0.2,0.36-0.34,0.74-0.41,1.17c-0.07,0.42-0.1,0.82-0.1,1.19c0,0.49,0.02,0.95,0.08,1.37
			c0.06,0.43,0.18,0.82,0.37,1.15c0.19,0.33,0.46,0.6,0.81,0.79c0.34,0.19,0.8,0.28,1.37,0.28c0.59,0,1.06-0.09,1.43-0.29
			c0.37-0.2,0.66-0.47,0.85-0.81c0.2-0.34,0.34-0.73,0.41-1.18c0.06-0.45,0.1-0.92,0.1-1.42c0-0.44-0.03-0.87-0.09-1.28
			c-0.07-0.42-0.19-0.79-0.37-1.11s-0.44-0.58-0.78-0.78C171.12,44.5,170.68,44.4,170.13,44.4z"/>
		<path fill-rule="evenodd" clip-rule="evenodd" fill="#FFFFFF" d="M179.26,42.83c0.8,0,1.44,0.12,1.93,0.37
			c0.49,0.24,0.88,0.55,1.15,0.94c0.28,0.4,0.47,0.84,0.57,1.35c0.09,0.5,0.14,1.02,0.14,1.54c0,0.3-0.05,0.53-0.16,0.69
			c-0.11,0.17-0.32,0.25-0.62,0.25h-5.66c0.03,0.64,0.08,1.19,0.15,1.64c0.07,0.45,0.19,0.82,0.38,1.1
			c0.18,0.28,0.44,0.49,0.78,0.62c0.33,0.12,0.78,0.19,1.34,0.19c0.19,0,0.42-0.01,0.69-0.03c0.26-0.02,0.54-0.04,0.81-0.08
			l0.81-0.08l0.64-0.06c0.13-0.01,0.21,0.04,0.25,0.15l0.06,0.31c0.03,0.14-0.04,0.25-0.21,0.32c-0.16,0.06-0.36,0.11-0.61,0.17
			c-0.26,0.06-0.53,0.11-0.82,0.15c-0.29,0.05-0.59,0.08-0.89,0.11c-0.3,0.02-0.56,0.03-0.81,0.03c-0.85,0-1.52-0.13-2-0.4
			c-0.49-0.27-0.86-0.62-1.11-1.07s-0.4-0.97-0.46-1.56c-0.07-0.6-0.1-1.22-0.1-1.86c0-0.54,0.03-1.1,0.1-1.67
			c0.06-0.57,0.21-1.09,0.46-1.55s0.62-0.83,1.13-1.13C177.7,42.98,178.38,42.83,179.26,42.83z M179.26,43.77
			c-0.58,0-1.04,0.07-1.38,0.22c-0.34,0.15-0.6,0.37-0.78,0.65c-0.18,0.28-0.31,0.63-0.36,1.04c-0.06,0.41-0.1,0.88-0.13,1.41h5.33
			c-0.01-0.4-0.04-0.8-0.09-1.2c-0.05-0.4-0.17-0.75-0.35-1.07c-0.19-0.31-0.45-0.57-0.8-0.76
			C180.35,43.87,179.87,43.77,179.26,43.77z"/>
		<path fill="#FFFFFF" d="M192.09,43.02c0.18,0,0.27,0.09,0.27,0.25v8.84c0,0.17-0.09,0.25-0.25,0.25h-0.53
			c-0.19,0-0.29-0.08-0.29-0.25v-8.15h-3.83l-0.41,5.18c-0.04,0.45-0.1,0.87-0.17,1.27c-0.07,0.41-0.19,0.77-0.39,1.08
			c-0.19,0.31-0.47,0.56-0.83,0.75c-0.37,0.18-0.87,0.27-1.49,0.27c-0.18,0-0.27-0.06-0.27-0.21v-0.4c0-0.09,0.02-0.14,0.05-0.16
			c0.03-0.02,0.1-0.04,0.18-0.05c0.39-0.04,0.69-0.12,0.92-0.23s0.41-0.28,0.55-0.51c0.14-0.22,0.24-0.51,0.31-0.87
			c0.07-0.36,0.13-0.81,0.18-1.34l0.42-4.87c0.03-0.33,0.11-0.56,0.26-0.67c0.15-0.12,0.38-0.18,0.7-0.18H192.09z"/>
		<path fill="#FFFFFF" d="M194.45,43.29c0-0.18,0.09-0.27,0.27-0.27h0.51c0.17,0,0.25,0.09,0.25,0.27v7.29l2.4-3.36l2.91-3.97
			l0.17-0.16c0.04-0.04,0.12-0.07,0.22-0.07h0.45c0.18,0,0.27,0.09,0.27,0.25v8.82c0,0.18-0.1,0.27-0.29,0.27h-0.49
			c-0.19,0-0.29-0.09-0.29-0.27v-7.5l-2.06,2.94l-3.37,4.64c-0.03,0.05-0.07,0.09-0.12,0.13c-0.04,0.04-0.12,0.06-0.22,0.06h-0.36
			c-0.16,0-0.25-0.09-0.25-0.27V43.29z"/>
	</g>
</g>
</svg>
